<?xml version="1.0" encoding="utf-8"?>
<!-- Generator: Adobe Illustrator 25.0.1, SVG Export Plug-In . SVG Version: 6.00 Build 0)  -->
<svg version="1.1" id="katman_1" xmlns="http://www.w3.org/2000/svg" xmlns:xlink="http://www.w3.org/1999/xlink" x="0px" y="0px"
	 viewBox="0 0 675.2 170.4" style="enable-background:new 0 0 675.2 170.4;" xml:space="preserve">
<style type="text/css">
	.st0{fill:#F7AF31;}
	.st1{fill:#DB0F0F;}
</style>
<path class="st0" d="M675.2,36.7c0-20.8-11.6-36.7-24.9-36.7c-13.3,0-24.9,15.9-24.9,36.7c0,18,8.6,28.9,19.7,31.6
	c0,4.4-0.8,45.2-5,90c0,0,3.6,1.6,10.5,1.6c3.9,0,8-0.5,11.7-1.6c-4.1-39.7-5.6-78-6.1-88.3c-0.9,0.2-2,0.2-3-0.2
	c-0.8-0.2-1.6-0.5-2.2-0.9h0.3c1.3,0,2.7-0.2,3.9-0.5h0.2c0.5-0.2,0.9-0.2,0.9-0.2l0,0C666.8,65.1,675.2,54.2,675.2,36.7z"/>
<path class="st1" d="M24.4,101.4C11,104.8,0,110.8,0,126.4l0,0c0,15.2,10.3,20.8,21.6,20.8c8.8,0,18.3-3.3,25.2-11.6v9.7h23V91.5
	c0-20.5-10.6-27.8-31.6-27.8c-11.3,0-21.3,2.2-30.5,5l-1.6,20c8.9-2.7,17-4.5,25.3-4.5c10.2,0,15.2,2.8,15.2,10.8v0.8L24.4,101.4z
	 M32.1,130.8c-4.5,0-8.1-2.2-8.1-7.7c0-6.6,5.3-10.3,16.9-13.6l5.9-1.7v16.6C42.2,128.3,36.6,130.8,32.1,130.8L32.1,130.8z"/>
<polygon class="st1" points="81.9,38.2 81.9,145.3 104.9,145.3 104.9,35.6 "/>
<polygon class="st1" points="117.9,38.2 117.9,145.3 141,145.3 141,35.6 "/>
<path class="st1" d="M153.8,67.2v78.1h23.1V97.8c8.3-5.3,18.4-6.9,27-6.4l1.3-27.5c-15,0-22.7,6.1-28.3,26.6V64.6L153.8,67.2z"/>
<path class="st1" d="M282.9,87.8l-1.6-3.6c-4.5-11.4-15.2-20.5-32.5-20.3c-20.2,0-40.9,12.3-40.9,41.4c0,25.3,15.5,42,42.4,42
	c14.7,0,25.3-4.5,31.3-8.4l1.6-23c-9.2,7-21.7,9.5-30.2,9.5c-8.3,0-14.2-2.5-18-6.6l43.3-20.3C282.9,96.5,285,92.3,282.9,87.8z
	 M229.8,103.1c0-14.8,9.2-21.3,19.5-21.3c7.3,0,11.1,3.4,13.4,7.8l-32.8,15.3C229.8,104.5,229.8,103.7,229.8,103.1L229.8,103.1z"/>
<path class="st1" d="M332.2,84.2c6.3,0,12.3,2,16.9,4.4V66.7c-6.9-2-13.9-3-20.9-3c-26.3,0-39.9,16.4-39.9,41.7s13.6,41.7,39.9,41.7
	c7.8,0,15.5-1.4,22.8-4.2v-21.6c-5.8,2.7-12.3,4.8-18.8,4.8c-12,0-20.9-6.6-20.9-20.6C311.2,91.5,320.1,84.2,332.2,84.2z"/>
<polygon class="st1" points="360.4,145.3 383.6,145.3 383.6,64.5 360.4,67.2 "/>
<path class="st1" d="M371.9,31c-9.2,0-15,5.6-15,13.4c0,8,5.6,13.4,15,13.4c9.4,0,14.7-5.6,14.7-13.4C386.5,36.5,381.2,31,371.9,31z
	"/>
<path class="st1" d="M396.4,67.2v103.2h23.1v-25c4.1,1.3,8.3,1.9,12.5,1.9c23,0,40.5-15.5,40.5-45c0-26.6-12.2-38.3-28.9-38.3
	c-10.9,0-18.6,5-24.1,10.5v-9.7L396.4,67.2z M431.6,82.6c13,0,16.9,10.3,16.7,21.7c0,15.5-6.7,24.4-20.9,24.4
	c-2.7,0-5.2-0.3-7.8-0.8V86.3C423.1,84,427.3,82.8,431.6,82.6L431.6,82.6z"/>
<path class="st1" d="M553.3,87.8l-1.6-3.6c-4.5-11.4-15.2-20.5-32.5-20.3c-20.2,0-40.9,12.3-40.9,41.4c0,25.3,15.5,42,42.4,42
	c14.7,0,25.3-4.5,31.3-8.4l1.6-23c-9.2,7-21.7,9.5-30.2,9.5c-8.3,0-14.2-2.5-18-6.6l43.3-20.3C553.2,96.5,555.3,92.3,553.3,87.8z
	 M500.2,103.1c0-14.8,9.2-21.3,19.5-21.3c7.3,0,11.1,3.4,13.4,7.8l-32.8,15.3C500.2,104.5,500.2,103.7,500.2,103.1z"/>
<path class="st1" d="M582.1,88.6c0-5,6.9-6.3,13.4-6.3c8.1,0,16.3,1.7,23.6,5.2l-0.6-19.2c-5.8-2.7-13.6-4.5-23.6-4.5
	c-25.6,0-33.9,12.3-33.9,25.5c0,32,39.5,19.1,39.5,32c0,5.3-5.8,6.6-11.3,6.6c-10,0-19.7-2.7-28.3-7.5l-1.4,20.3
	c8,4.1,18.4,6.6,29.7,6.6c24.5,0,33.9-12,33.9-27.7C623.2,88.4,582.1,100.6,582.1,88.6z"/>
</svg>
