<?xml version="1.0" encoding="utf-8"?>
<!-- Generator: Adobe Illustrator 26.0.3, SVG Export Plug-In . SVG Version: 6.00 Build 0)  -->
<svg version="1.0" id="katman_1" xmlns="http://www.w3.org/2000/svg" xmlns:xlink="http://www.w3.org/1999/xlink" x="0px" y="0px"
	 viewBox="0 0 800 600" style="enable-background:new 0 0 800 600;" xml:space="preserve">
<style type="text/css">
	.st0{fill:#F7AF31;}
	.st1{fill:#DB0F0F;}
</style>
<path class="st0" d="M737.4,245.1c0-20.8-11.6-36.7-24.9-36.7c-13.3,0-24.9,15.9-24.9,36.7c0,18,8.6,28.9,19.7,31.6
	c0,4.4-0.8,45.2-5,90c0,0,3.6,1.6,10.5,1.6c3.9,0,8-0.5,11.7-1.6c-4.1-39.7-5.6-78-6.1-88.3c-0.9,0.2-2,0.2-3-0.2
	c-0.8-0.2-1.6-0.5-2.2-0.9h0.3c1.3,0,2.7-0.2,3.9-0.5h0.2c0.5-0.2,0.9-0.2,0.9-0.2l0,0C729,273.5,737.4,262.6,737.4,245.1z"/>
<path class="st1" d="M86.6,309.8c-13.4,3.4-24.4,9.4-24.4,25l0,0c0,15.2,10.3,20.8,21.6,20.8c8.8,0,18.3-3.3,25.2-11.6v9.7h23v-53.8
	c0-20.5-10.6-27.8-31.6-27.8c-11.3,0-21.3,2.2-30.5,5l-1.6,20c8.9-2.7,17-4.5,25.3-4.5c10.2,0,15.2,2.8,15.2,10.8v0.8L86.6,309.8z
	 M94.3,339.2c-4.5,0-8.1-2.2-8.1-7.7c0-6.6,5.3-10.3,16.9-13.6l5.9-1.7v16.6C104.4,336.7,98.8,339.2,94.3,339.2L94.3,339.2z"/>
<polygon class="st1" points="144.1,246.6 144.1,353.7 167.1,353.7 167.1,244 "/>
<polygon class="st1" points="180.1,246.6 180.1,353.7 203.2,353.7 203.2,244 "/>
<path class="st1" d="M216,275.6v78.1h23.1v-47.5c8.3-5.3,18.4-6.9,27-6.4l1.3-27.5c-15,0-22.7,6.1-28.3,26.6v-25.9L216,275.6z"/>
<path class="st1" d="M345.1,296.2l-1.6-3.6c-4.5-11.4-15.2-20.5-32.5-20.3c-20.2,0-40.9,12.3-40.9,41.4c0,25.3,15.5,42,42.4,42
	c14.7,0,25.3-4.5,31.3-8.4l1.6-23c-9.2,7-21.7,9.5-30.2,9.5c-8.3,0-14.2-2.5-18-6.6l43.3-20.3C345.1,304.9,347.2,300.7,345.1,296.2z
	 M292,311.5c0-14.8,9.2-21.3,19.5-21.3c7.3,0,11.1,3.4,13.4,7.8l-32.8,15.3C292,312.9,292,312.1,292,311.5L292,311.5z"/>
<path class="st1" d="M394.4,292.6c6.3,0,12.3,2,16.9,4.4v-21.9c-6.9-2-13.9-3-20.9-3c-26.3,0-39.9,16.4-39.9,41.7
	s13.6,41.7,39.9,41.7c7.8,0,15.5-1.4,22.8-4.2v-21.6c-5.8,2.7-12.3,4.8-18.8,4.8c-12,0-20.9-6.6-20.9-20.6
	C373.4,299.9,382.3,292.6,394.4,292.6z"/>
<polygon class="st1" points="422.6,353.7 445.8,353.7 445.8,272.9 422.6,275.6 "/>
<path class="st1" d="M434.1,239.4c-9.2,0-15,5.6-15,13.4c0,8,5.6,13.4,15,13.4c9.4,0,14.7-5.6,14.7-13.4
	C448.7,244.9,443.4,239.4,434.1,239.4z"/>
<path class="st1" d="M458.6,275.6v103.2h23.1v-25c4.1,1.3,8.3,1.9,12.5,1.9c23,0,40.5-15.5,40.5-45c0-26.6-12.2-38.3-28.9-38.3
	c-10.9,0-18.6,5-24.1,10.5v-9.7L458.6,275.6z M493.8,291c13,0,16.9,10.3,16.7,21.7c0,15.5-6.7,24.4-20.9,24.4
	c-2.7,0-5.2-0.3-7.8-0.8v-41.6C485.3,292.4,489.5,291.2,493.8,291L493.8,291z"/>
<path class="st1" d="M615.5,296.2l-1.6-3.6c-4.5-11.4-15.2-20.5-32.5-20.3c-20.2,0-40.9,12.3-40.9,41.4c0,25.3,15.5,42,42.4,42
	c14.7,0,25.3-4.5,31.3-8.4l1.6-23c-9.2,7-21.7,9.5-30.2,9.5c-8.3,0-14.2-2.5-18-6.6l43.3-20.3C615.4,304.9,617.5,300.7,615.5,296.2z
	 M562.4,311.5c0-14.8,9.2-21.3,19.5-21.3c7.3,0,11.1,3.4,13.4,7.8l-32.8,15.3C562.4,312.9,562.4,312.1,562.4,311.5z"/>
<path class="st1" d="M644.3,297c0-5,6.9-6.3,13.4-6.3c8.1,0,16.3,1.7,23.6,5.2l-0.6-19.2c-5.8-2.7-13.6-4.5-23.6-4.5
	c-25.6,0-33.9,12.3-33.9,25.5c0,32,39.5,19.1,39.5,32c0,5.3-5.8,6.6-11.3,6.6c-10,0-19.7-2.7-28.3-7.5l-1.4,20.3
	c8,4.1,18.4,6.6,29.7,6.6c24.5,0,33.9-12,33.9-27.7C685.4,296.8,644.3,309,644.3,297z"/>
</svg>
